<?xml version="1.0" encoding="utf-8"?>
<!-- Generator: Adobe Illustrator 23.1.1, SVG Export Plug-In . SVG Version: 6.00 Build 0)  -->
<svg version="1.1" id="Layer_1" xmlns="http://www.w3.org/2000/svg" xmlns:xlink="http://www.w3.org/1999/xlink" x="0px" y="0px"
	 viewBox="0 0 159.3 40.3" style="enable-background:new 0 0 159.3 40.3;" xml:space="preserve">
<style type="text/css">
	.st0{fill:#009982;}
	.st1{fill:#005597;}
</style>
<g>
	<g>
		<g>
			<path class="st0" d="M20.8,1.6c0,0-4.7-4.9-10.2,3.1c-5.5,8-4,13.5-4,13.5s3.9,3.1,4,1.6c0.1-1.5-0.1-12.2,8.5-16.4
				C19,3.5,22,2.5,20.8,1.6z"/>
			<path class="st0" d="M7.3,24.5l2.6,1.3c0,0,1,0.4,1.1,0.8c0.1,0.5,0.2,1.6-0.9,1.1C9.2,27.1,6.8,25.2,7.3,24.5z"/>
			<path class="st0" d="M14.5,29.8c0,0,5,4.5,10-3.8c5-8.4,3.1-13.8,3.1-13.8s-4.1-2.8-4.1-1.3c0,1.5,0.9,12.2-7.3,16.9
				C16.1,27.8,13.2,29.1,14.5,29.8z"/>
			<path class="st0" d="M23.6,3.2c1.1,0.5,3,2.1,2.5,2.9l-2.1-1"/>
			<path class="st1" d="M14.2,9c0,0,3.1-4.7,5-4.4C21,5,30.7,6.3,30.8,12.9c0,0-0.4,0.3-1.1-0.6s-8.3-5.1-14.6-2.9
				C15.1,9.5,13.6,9.9,14.2,9z"/>
			<path class="st1" d="M6,12.3c0,0,1.3-3.7,2.2-5.2c0.9-1.6-0.7-0.9-0.7-0.9s-4.5,2.4-4.9,6.4c-0.4,4,0.8,3.5,1.4,2.6
				C4.5,14.2,5.8,12.9,6,12.3z"/>
			<path class="st1" d="M20.5,22.2c0,0-2.9,4.7-4.7,4.3c-1.9-0.4-11.6-1.6-11.7-8.3c0,0,0.4-0.3,1.1,0.6c0.7,0.9,8.1,5.1,14.4,2.9
				C19.6,21.7,21.2,21.3,20.5,22.2z"/>
			<path class="st1" d="M28.2,19.3c0,0-0.7,3.1-1.5,4.7c-0.8,1.6,0.5,0.6,0.5,0.6s4.8-2,5.2-6c0.4-4-1-3.6-1.4-2.6
				C30.6,17.3,28.4,18.8,28.2,19.3z"/>
		</g>
		<g>
			<polygon class="st0" points="59,30.4 136.1,30.4 136.1,30.4 			"/>
			<rect x="59" y="30.2" class="st0" width="77.1" height="0.3"/>
		</g>
		<path class="st1" d="M55.3,7.1h-0.1c-1.3-1.5-3.7-2-5.6-2c-4.9,0-8.7,3.4-8.7,8.6c0,5.3,4.1,9.3,9,9.3c1.5,0,3-0.2,4.4-0.6l0-4.7
			c0-1.5,0-3.1-1.4-3.7v-0.1l4.8,0V14c-0.2,0.4-0.2,0.9-0.2,1.4l0,7.5c0,0.5,0,1,0.2,1.5c-2.5,0.5-5,1-7.6,1
			c-8.1,0-12.9-4.6-12.9-11.2c0-7.1,5.4-11.5,13-11.5c1.7,0,3.3,0.2,5,0.6L55.3,7.1z"/>
		<path class="st1" d="M66,16.8l-1.6,4.6c-0.7,1.8-0.9,2.8,0.6,3.4v0.1l-5.8,0v-0.1c1.8-0.9,2.4-2.8,3.1-4.7l5.3-13.7
			c0.4-1.2,1-2.6-0.5-3.1V3.3l5,0l6.6,16.8c0.7,1.9,1.3,3.7,3.1,4.7v0.1l-6.5,0v-0.1c1.6-0.7,1.3-1.1,0.4-3.4l-1.7-4.6L66,16.8z
			 M69.9,6.1l-3.1,8.3H73L69.9,6.1z"/>
		<path class="st1" d="M92.3,22.5c2.1,0.1,4-0.6,5.6-2H98l-1.6,4.4h-13v-0.1c1.6-0.6,1.4-3,1.4-4.5l0-12.4c0-1.5,0.2-3.9-1.4-4.5
			V3.3h6v0.1C87.8,4,88,6.4,88,7.9l0,14.3L92.3,22.5z"/>
		<path class="st1" d="M103.7,22.1l4,0.4c2.1,0.2,4.3-0.5,5.8-1.9h0.1l-1.4,4.3l-13.2,0v-0.1c1.6-0.6,1.4-3,1.4-4.5l0-12.4
			c0-1.5,0.2-3.9-1.4-4.5V3.3l10.1,0c0.5,0,1.1,0.1,1.5-0.2h0.1l0,3.8h-0.1c-1-1.2-2.3-1.3-3.7-1.3c-1.1,0-2.2,0-3.2,0.2l0,6.1h3.8
			c0.5,0,1,0,1.4-0.2h0.1l0,3.5h-0.1c-0.5-0.9-1.8-0.9-2.8-0.9h-2.3L103.7,22.1z"/>
		<path class="st1" d="M119,20.6c0,1.8,0,3.2,1.6,4.2v0.1l-5.6,0v-0.1c1.7-1,1.7-2.3,1.7-4.2l0-13.1c0-1.8,0-3.2-1.6-4.1V3.3l4.6,0
			v0c0.1,0.4,0.2,0.5,0.5,0.8l0.4,0.7l11.6,15.1l0-12.4c0-1.8,0-3.2-1.6-4.1V3.2h5.6v0.1c-1.6,1-1.6,2.3-1.6,4.1l0,18.4
			c-2.2-0.8-3.2-1.9-4.6-3.7L119,7.9L119,20.6z"/>
		<path class="st1" d="M159.5,13.7c0.1,6.7-5,11.6-10.9,11.7c-5.9,0.1-11-4.5-11.1-11.3c-0.1-6.2,4.8-11.5,11.1-11.4
			C154.9,2.5,159.4,7.7,159.5,13.7 M140.9,13.7c0,4.6,3.1,9.3,7.8,9.2c4.6,0,7.4-3.7,7.4-8.6c0-4.8-2.9-9.4-7.6-9.3
			C143.8,5.1,140.8,8.8,140.9,13.7"/>
	</g>
	<g>
		<path class="st0" d="M83.5,37.3c-0.1,0.2-0.6,1.6-0.6,1.9c0,0.2,0.1,0.5,0.4,0.5h0.4c0.1,0,0.1,0,0.1,0.1V40c0,0.1,0,0.1-0.1,0.1
			c-0.1,0-0.5,0-1.4,0c-0.7,0-1,0-1.1,0c-0.1,0-0.1-0.1-0.1-0.1v-0.2c0-0.1,0-0.1,0.1-0.1h0.3c0.2,0,0.5-0.1,0.7-0.4
			c0.1-0.2,0.9-2,1.2-2.9c0.1-0.2,0.9-2.4,1-2.6c0-0.1,0.1-0.2,0-0.3c0,0-0.1-0.1-0.1-0.1c0,0,0-0.1,0.1-0.1c0.3-0.1,1-0.3,1.1-0.5
			c0.1,0,0.1-0.1,0.1-0.1c0.1,0,0.1,0.1,0.1,0.2c0.2,0.6,1,2.9,1.2,3.5c0.2,0.8,0.9,2.7,1,2.9c0.2,0.3,0.4,0.5,0.6,0.5h0.3
			c0.1,0,0.1,0,0.1,0.1V40c0,0.1,0,0.1-0.1,0.1c-0.2,0-0.4,0-1.7,0c-0.8,0-1.2,0-1.4,0c-0.1,0-0.1-0.1-0.1-0.1v-0.2
			c0,0,0-0.1,0.1-0.1H86c0.3,0,0.4-0.1,0.3-0.4c-0.1-0.4-0.5-1.7-0.6-2L83.5,37.3L83.5,37.3z M85.6,36.9c-0.1-0.3-0.7-2.4-0.8-2.7
			c0-0.2-0.1-0.2-0.1-0.2c-0.1,0-0.1,0-0.1,0.1c-0.1,0.1-0.9,2.5-1,2.8L85.6,36.9L85.6,36.9z"/>
		<path class="st0" d="M94.6,35.5c0-0.7,0-1.4,0-1.7c0-0.3-0.1-0.5-0.3-0.5H94c0,0-0.1,0-0.1-0.1V33c0-0.1,0-0.1,0.1-0.1
			c0.1,0,0.4,0,1.5,0c0.6,0,1.5,0,1.9,0c0.8,0,1.4,0.3,1.8,0.7c0.4,0.3,0.6,0.7,0.6,1.1c0,1.3-1,1.9-1.8,1.9v0.1
			c0.3,0.1,0.5,0.3,0.7,0.5c0.1,0.2,0.7,1.1,0.8,1.2c0.1,0.1,0.6,0.9,0.8,1.1c0.1,0.1,0.5,0.2,0.7,0.2c0.1,0,0.1,0,0.1,0.1V40
			c0,0.1,0,0.1-0.1,0.1c-0.1,0-0.3,0-1.1,0c-0.3,0-0.7,0-1,0c-0.3-0.2-0.9-1.4-1.1-1.7c-0.3-0.7-0.8-1.4-1.2-1.4H96v0.5
			c0,0.6,0,1.7,0.1,1.9c0,0.2,0.1,0.4,0.3,0.4h0.4c0.1,0,0.1,0,0.1,0.1V40c0,0.1,0,0.1-0.2,0.1c0,0-0.3,0-1.3,0c-1.1,0-1.3,0-1.4,0
			c-0.1,0-0.1,0-0.1-0.1v-0.2c0-0.1,0-0.1,0.1-0.1h0.3c0.2,0,0.4-0.1,0.4-0.3c0-1,0-1.9,0-2.9L94.6,35.5
			C94.6,35.5,94.6,35.5,94.6,35.5z M96.1,36.6c0.2,0,0.3,0,0.4,0c1.3,0,1.6-1.3,1.6-1.7c0-0.5-0.2-0.9-0.4-1.1
			c-0.4-0.3-0.8-0.4-1.1-0.4c-0.2,0-0.3,0-0.4,0.1c-0.1,0-0.1,0.2-0.1,0.3L96.1,36.6z"/>
		<path class="st0" d="M108.1,33.4h-0.4c-0.3,0-0.9,0-1.4,0.2c-0.2,0.2-0.7,0.8-0.9,1.1c0,0-0.1,0.1-0.1,0.1l-0.2-0.1
			c0,0-0.1-0.1,0-0.1c0.1-0.4,0.4-1.8,0.5-2c0-0.1,0.1-0.2,0.2-0.2c0.1,0,0.1,0,0.2,0.2c0.1,0.1,0.3,0.2,0.7,0.3c0.5,0,1,0.1,2,0.1
			h0.6c1.1,0,1.5,0,2-0.1c0.2,0,0.6-0.1,0.7-0.3c0.1-0.1,0.2-0.2,0.2-0.2c0.1,0,0.1,0,0.1,0.2c0,0.2,0.2,1.5,0.3,2c0,0,0,0.1,0,0.1
			l-0.2,0.1c0,0-0.1,0-0.1-0.1c-0.2-0.4-0.6-0.9-0.9-1.1c-0.3-0.2-1.1-0.2-1.4-0.2h-0.3v2.8c0,0.1,0,3,0,3.1c0,0.3,0.1,0.4,0.3,0.4
			h0.5c0.1,0,0.1,0,0.1,0.1v0.2c0,0.1,0,0.1-0.1,0.1c-0.1,0-0.4,0-1.5,0c-1.1,0-1.5,0-1.6,0c-0.1,0-0.1,0-0.1-0.1v-0.2
			c0-0.1,0-0.1,0.1-0.1h0.5c0.2,0,0.3-0.1,0.3-0.3c0-0.2,0-3.3,0-3.5L108.1,33.4L108.1,33.4z"/>
	</g>
</g>
</svg>
