<?xml version="1.0" encoding="utf-8"?>
<!-- Generator: Adobe Illustrator 23.1.1, SVG Export Plug-In . SVG Version: 6.00 Build 0)  -->
<svg version="1.1" id="Layer_1" xmlns="http://www.w3.org/2000/svg" xmlns:xlink="http://www.w3.org/1999/xlink" x="0px" y="0px"
	 viewBox="0 0 220 60" style="enable-background:new 0 0 220 60;" xml:space="preserve">
<style type="text/css">
	.st0{fill:#FFFFFF;}
</style>
<g>
	<g>
		<g>
			<path class="st0" d="M26.3,3.7c0,0-6.5-6.8-14.2,4.4C4.4,19.2,6.5,26.8,6.5,26.8s5.5,4.3,5.6,2.2c0.1-2-0.1-17,11.7-22.7
				C23.9,6.3,28.1,4.9,26.3,3.7z"/>
			<path class="st0" d="M7.7,35.5l3.7,1.7c0,0,1.4,0.5,1.6,1.2c0.2,0.7,0.2,2.3-1.2,1.5C10.2,39.2,7,36.5,7.7,35.5z"/>
			<path class="st0" d="M17.7,42.9c0,0,7,6.3,13.9-5.3c6.9-11.6,4.3-19.1,4.3-19.1s-5.8-3.9-5.8-1.9c0,2,1.3,16.9-10.2,23.5
				C19.9,40.1,15.8,41.9,17.7,42.9z"/>
			<path class="st0" d="M30.3,5.9c1.5,0.7,4.1,3,3.5,4l-3-1.4"/>
			<path class="st0" d="M17.2,14c0,0,4.3-6.6,6.9-6.1c2.6,0.5,16.1,2.2,16.3,11.5c0,0-0.6,0.4-1.5-0.8s-11.6-7-20.3-4
				C18.5,14.7,16.3,15.3,17.2,14z"/>
			<path class="st0" d="M5.8,18.6c0,0,1.8-5.1,3-7.3c1.3-2.2-1-1.3-1-1.3S1.6,13.4,1,19c-0.6,5.5,1.1,4.9,1.9,3.6
				C3.8,21.1,5.5,19.4,5.8,18.6z"/>
			<path class="st0" d="M26,32.3c0,0-4,6.6-6.6,6c-2.6-0.5-16.1-2.2-16.3-11.5c0,0,0.6-0.4,1.5,0.8c0.9,1.2,11.3,7.1,20,4
				C24.7,31.6,26.9,31,26,32.3z"/>
			<path class="st0" d="M36.7,28.3c0,0-1,4.3-2.1,6.5c-1.1,2.2,0.8,0.8,0.8,0.8s6.7-2.7,7.2-8.3s-1.3-5-1.9-3.6
				C40,25.5,37,27.6,36.7,28.3z"/>
		</g>
		<g>
			<polygon class="st0" points="79.5,43.7 186.7,43.7 186.7,43.7 			"/>
			<rect x="79.5" y="43.5" class="st0" width="107.2" height="0.5"/>
		</g>
		<path class="st0" d="M74.4,11.4h-0.1c-1.8-2.1-5.1-2.7-7.8-2.7c-6.9,0-12.1,4.7-12.1,12C54.4,28,60,33.5,67,33.5
			c2,0,4.1-0.3,6.1-0.9l0-6.6c0-2.1,0-4.3-2-5.1v-0.1l6.7,0v0.1c-0.2,0.5-0.2,1.3-0.2,2l0,10.5c0,0.7,0,1.4,0.2,2.1
			c-3.5,0.7-6.9,1.4-10.5,1.4c-11.2,0-17.9-6.3-17.9-15.5c0-9.8,7.5-15.9,18.1-15.9c2.3,0,4.6,0.3,6.9,0.8L74.4,11.4z"/>
		<path class="st0" d="M89.2,24.8l-2.3,6.4c-0.9,2.6-1.2,3.9,0.9,4.7v0.1l-8.1,0v-0.2c2.5-1.3,3.3-3.9,4.3-6.5l7.3-19
			c0.6-1.7,1.4-3.6-0.7-4.3V6.1l6.9,0l9.2,23.4c1,2.6,1.8,5.2,4.3,6.5V36l-9,0v-0.1c2.2-1,1.8-1.5,0.6-4.7l-2.4-6.4L89.2,24.8z
			 M94.6,9.9l-4.3,11.5h8.6L94.6,9.9z"/>
		<path class="st0" d="M125.8,32.7c3,0.2,5.6-0.9,7.8-2.8h0.1l-2.3,6.1h-18v-0.1c2.2-0.8,2-4.2,2-6.3l0-17.2c0-2.1,0.3-5.4-2-6.3V6
			h8.4v0.1c-2.3,0.9-1.9,4.3-1.9,6.3l0,19.9L125.8,32.7z"/>
		<path class="st0" d="M141.7,32.2l5.6,0.5c2.9,0.3,5.9-0.7,8.1-2.7h0.1l-2,6l-18.3,0v-0.1c2.2-0.8,2-4.2,2-6.3l0-17.2
			c0-2.1,0.2-5.4-2-6.3V6l14,0c0.8,0,1.5,0.1,2.1-0.2h0.1l0,5.3h-0.1c-1.4-1.6-3.2-1.8-5.2-1.8c-1.5,0-3.1,0-4.5,0.3l0,8.5h5.2
			c0.7,0,1.4,0,1.9-0.3h0.1l0,4.8h-0.1c-0.7-1.3-2.5-1.3-3.9-1.3h-3.2L141.7,32.2z"/>
		<path class="st0" d="M162.9,30.1c0,2.6,0,4.4,2.3,5.8V36l-7.8,0v-0.1c2.3-1.4,2.3-3.2,2.3-5.8l0-18.2c0-2.6,0-4.4-2.3-5.7V6l6.4,0
			v0c0.2,0.5,0.3,0.8,0.7,1.1l0.6,0.9l16.1,21l0-17.3c0-2.6,0-4.4-2.3-5.7V6h7.7v0.1c-2.3,1.4-2.3,3.2-2.3,5.7l0,25.6
			c-3.1-1.1-4.5-2.6-6.4-5.2l-15.1-19.8L162.9,30.1z"/>
		<path class="st0" d="M219.1,20.4c0.1,9.3-6.9,16.1-15.2,16.2c-8.3,0.1-15.3-6.3-15.4-15.6c-0.1-8.7,6.7-16,15.5-15.9
			C212.8,5,219.1,12.2,219.1,20.4 M193.3,20.6c0.1,6.4,4.3,12.9,10.8,12.8c6.3-0.1,10.3-5.2,10.3-12c-0.1-6.7-4-13-10.6-13
			C197.3,8.5,193.2,13.7,193.3,20.6"/>
	</g>
	<g>
		<path class="st0" d="M113.5,53.4c-0.1,0.3-0.8,2.2-0.8,2.7c0,0.3,0.1,0.6,0.5,0.6h0.5c0.1,0,0.2,0.1,0.2,0.1v0.3
			c0,0.1,0,0.2-0.1,0.2c-0.2,0-0.8,0-1.9,0c-1,0-1.3,0-1.5,0c-0.1,0-0.1-0.1-0.1-0.2v-0.3c0-0.1,0-0.1,0.1-0.1h0.4
			c0.3,0,0.7-0.2,1-0.6c0.2-0.3,1.2-2.7,1.7-4c0.1-0.3,1.2-3.3,1.4-3.7c0-0.1,0.1-0.3,0-0.5c0-0.1-0.1-0.1-0.1-0.2
			c0,0,0-0.1,0.1-0.1c0.4-0.1,1.4-0.5,1.6-0.7c0.1-0.1,0.1-0.1,0.2-0.1c0.1,0,0.1,0.1,0.2,0.2c0.3,0.9,1.4,4,1.6,4.9
			c0.3,1.1,1.2,3.7,1.4,4.1c0.2,0.5,0.6,0.6,0.8,0.6h0.5c0.1,0,0.1,0.1,0.1,0.1v0.3c0,0.1,0,0.2-0.1,0.2c-0.3,0-0.6,0-2.4,0
			c-1.2,0-1.7,0-1.9,0c-0.1,0-0.2-0.1-0.2-0.2v-0.3c0-0.1,0-0.1,0.1-0.1h0.4c0.4,0,0.5-0.1,0.4-0.5c-0.1-0.5-0.7-2.3-0.8-2.8
			L113.5,53.4L113.5,53.4z M116.5,52.8c-0.1-0.4-1-3.4-1.1-3.7c-0.1-0.2-0.1-0.3-0.2-0.3c-0.1,0-0.1,0.1-0.2,0.2
			c-0.1,0.2-1.3,3.5-1.4,3.8L116.5,52.8L116.5,52.8z"/>
		<path class="st0" d="M129,50.8c0-1,0-1.9,0-2.3c0-0.5-0.2-0.7-0.4-0.7h-0.6c-0.1,0-0.1,0-0.1-0.1v-0.4c0-0.1,0-0.1,0.1-0.1
			c0.1,0,0.6,0,2.1,0c0.8,0,2,0,2.6,0c1.1,0,1.9,0.4,2.5,0.9c0.5,0.5,0.8,1,0.8,1.5c0,1.8-1.3,2.6-2.6,2.7v0.1
			c0.4,0.1,0.7,0.4,0.9,0.7c0.2,0.2,1,1.5,1.1,1.6c0.1,0.1,0.8,1.2,1.1,1.5c0.2,0.2,0.7,0.3,1,0.3c0.1,0,0.1,0.1,0.1,0.1v0.3
			c0,0.1,0,0.1-0.1,0.1c-0.1,0-0.5,0-1.6,0c-0.4,0-0.9,0-1.3,0c-0.4-0.3-1.3-1.9-1.5-2.4c-0.5-1-1.1-2-1.7-2H131v0.7
			c0,0.8,0,2.4,0.1,2.6c0,0.3,0.1,0.5,0.4,0.5h0.6c0.1,0,0.1,0,0.1,0.1v0.3c0,0.1,0,0.1-0.2,0.1c0,0-0.4,0-1.8,0c-1.5,0-1.8,0-2,0
			c-0.1,0-0.1,0-0.1-0.1v-0.3c0-0.1,0-0.1,0.1-0.1h0.4c0.3,0,0.6-0.1,0.6-0.4c0-1.4,0-2.7,0-4L129,50.8C129,50.8,129,50.8,129,50.8z
			 M131,52.3c0.3,0,0.4,0,0.6,0c1.8,0,2.3-1.8,2.3-2.4c0-0.6-0.2-1.3-0.5-1.6c-0.5-0.5-1.1-0.6-1.6-0.6c-0.2,0-0.4,0-0.5,0.1
			c-0.1,0.1-0.1,0.2-0.2,0.4L131,52.3z"/>
		<path class="st0" d="M147.8,47.9h-0.5c-0.4,0-1.3,0-1.9,0.2c-0.3,0.2-0.9,1.1-1.3,1.6c0,0.1-0.1,0.1-0.1,0.1l-0.3-0.1
			c-0.1,0-0.1-0.1-0.1-0.1c0.2-0.6,0.6-2.4,0.7-2.7c0-0.2,0.1-0.2,0.2-0.2c0.1,0,0.1,0.1,0.3,0.2c0.2,0.2,0.4,0.3,0.9,0.3
			c0.7,0,1.3,0.1,2.8,0.1h0.8c1.5,0,2.1-0.1,2.7-0.1c0.3,0,0.9-0.2,1-0.3c0.1-0.1,0.2-0.2,0.3-0.2c0.1,0,0.1,0.1,0.2,0.2
			c0,0.3,0.3,2,0.4,2.8c0,0.1,0,0.1-0.1,0.1l-0.3,0.1c-0.1,0-0.1,0-0.1-0.1c-0.3-0.5-0.9-1.2-1.2-1.6c-0.3-0.2-1.6-0.3-1.9-0.3h-0.5
			v3.9c0,0.2,0,4.1,0,4.3c0,0.3,0.1,0.6,0.5,0.6h0.6c0.1,0,0.1,0,0.1,0.1v0.3c0,0.1,0,0.1-0.1,0.1c-0.1,0-0.6,0-2.1,0
			c-1.5,0-2.1,0-2.3,0c-0.1,0-0.1-0.1-0.1-0.2v-0.3c0-0.1,0-0.1,0.1-0.1h0.7c0.3,0,0.4-0.2,0.5-0.4c0-0.3,0-4.6,0-4.9L147.8,47.9
			L147.8,47.9z"/>
	</g>
</g>
</svg>
